<svg width="16" height="16" viewBox="0 0 16 16" fill="none" xmlns="http://www.w3.org/2000/svg">
<path d="M3.00004 10.6652C3.56263 10.6652 4.21197 10.7208 4.53273 10.1652C4.66671 9.93316 4.66671 9.62162 4.66671 8.99855L4.66671 6.99855C4.66671 6.37548 4.66671 6.06395 4.53273 5.83188C4.21197 5.27628 3.56263 5.33188 3.00004 5.33188C2.43745 5.33188 1.78811 5.27628 1.46735 5.83188C1.33337 6.06395 1.33337 6.37548 1.33337 6.99855L1.33337 8.99855C1.33337 9.62162 1.33337 9.93316 1.46735 10.1652C1.78811 10.7208 2.43745 10.6652 3.00004 10.6652Z" fill="#00A862" stroke="black" stroke-linecap="round" stroke-linejoin="round"/>
<path d="M8.66667 12.6652C9.22927 12.6652 9.8786 12.7208 10.1993 12.1652C10.3333 11.9332 10.3333 11.6216 10.3333 10.9985L10.3333 4.99855C10.3333 4.37548 10.3333 4.06395 10.1993 3.83188C9.8786 3.27628 9.22927 3.33188 8.66667 3.33188C8.10407 3.33188 7.45473 3.27628 7.134 3.83188C7 4.06395 7 4.37548 7 4.99855L7 10.9985C7 11.6216 7 11.9332 7.134 12.1652C7.45473 12.7208 8.10407 12.6652 8.66667 12.6652Z" fill="#00A862" stroke="black" stroke-linecap="round" stroke-linejoin="round"/>
<path d="M13.5 8.99868C12.9937 8.99868 12.4093 9.0463 12.1206 8.57025C12 8.37141 12 8.10447 12 7.57058L12 2.42943C12 1.89555 12 1.6286 12.1206 1.42976C12.4093 0.953685 12.9937 1.00133 13.5 1.00133C14.0063 1.00133 14.5907 0.953684 14.8794 1.42976C15 1.6286 15 1.89555 15 2.42943L15 7.57058C15 8.10447 15 8.37141 14.8794 8.57025C14.5907 9.0463 14.0063 8.99868 13.5 8.99868Z" fill="#00A862" stroke="black" stroke-linecap="round" stroke-linejoin="round"/>
</svg>
